<svg width="819" height="822" viewBox="0 0 819 822" fill="none" xmlns="http://www.w3.org/2000/svg">
<g clip-path="url(#clip0_40_137)">
<path d="M638.738 91.7802C636.258 83.5415 631.982 75.4664 625.499 67.729C610.801 50.1511 589.729 39.2425 568.537 30.5571C490.264 -1.51475 401.983 -8.67451 319.641 10.6579C237.299 29.9904 161.322 75.7933 105.938 139.817C72.529 178.449 46.1588 224.579 37.9997 275.035C35.095 292.984 34.6273 311.967 41.6332 328.739C49.4986 347.57 66.1867 361.715 84.8112 369.998C103.436 378.28 123.964 381.244 144.296 382.65C304.15 393.7 488.763 319.16 596.572 200.8C622.812 171.987 650.27 130.107 638.738 91.7802Z" fill="url(#paint0_linear_40_137)"/>
<path d="M0.609211 424.203C0.609211 424.203 103.36 573.817 348.165 534.443C348.165 534.443 313.353 725.12 210.603 740.3C107.852 755.492 -9.4972 511.94 0.609211 424.203Z" fill="url(#paint1_linear_40_137)"/>
<path d="M560.117 478.941C560.117 478.941 758.079 360.571 802.29 293.496C818.38 349.597 822.514 417.98 816.139 476.729C805.423 575.527 736.147 670.599 661.856 733.707C602.882 783.804 537.109 802.602 462.904 815.494C449.23 817.87 323.231 831.143 323.166 811.037C323.144 804.902 323.166 798.799 323.166 798.799C323.166 798.799 507.344 767.828 560.117 478.931V478.941Z" fill="url(#paint2_linear_40_137)"/>
</g>
<defs>
<linearGradient id="paint0_linear_40_137" x1="337.363" y1="560.805" x2="339.677" y2="-45.683" gradientUnits="userSpaceOnUse">
<stop offset="0.3" stop-color="#00AEF8"/>
<stop offset="0.95" stop-color="#00A3DE"/>
</linearGradient>
<linearGradient id="paint1_linear_40_137" x1="84.5174" y1="640.532" x2="156.168" y2="538.45" gradientUnits="userSpaceOnUse">
<stop stop-color="#0084B8"/>
<stop offset="1" stop-color="#00A3DE"/>
</linearGradient>
<linearGradient id="paint2_linear_40_137" x1="537.021" y1="527" x2="714.201" y2="707.246" gradientUnits="userSpaceOnUse">
<stop stop-color="#00AEF8"/>
<stop offset="1" stop-color="#0083B1"/>
</linearGradient>
<clipPath id="clip0_40_137">
<rect width="819" height="822" fill="white"/>
</clipPath>
</defs>
</svg>
