<svg width="429" height="428" viewBox="0 0 429 428" fill="none" xmlns="http://www.w3.org/2000/svg">
<rect width="429" height="428" rx="45" fill="#ECECEC"/>
<g clip-path="url(#clip0_58_41)">
<path fill-rule="evenodd" clip-rule="evenodd" d="M20 186.216C42.413 186.682 117.593 188.077 123.908 188.271C155.947 189.246 164.395 176.719 183.315 150.689C197.335 131.4 222.957 121.74 253.359 121.74C330.806 121.74 408.004 167.756 408.004 206.58C408.004 242.656 324.317 289 253.359 289C217.975 289 194.921 277.936 183.315 261.966C162.58 233.443 154.182 223.727 123.675 225.905C117.371 226.358 41.9457 229.265 20 231.125V186.216Z" fill="#FF0000"/>
<path fill-rule="evenodd" clip-rule="evenodd" d="M248.017 175.718C248.017 174.192 258.215 172.245 258.215 163.35C258.215 154.483 244.73 153.694 238.838 153.694C237.618 153.694 234.974 153.823 231.672 154.105C231.127 152.904 230.235 152.338 228.808 152.338C227 152.338 225.768 153.253 224.923 154.817C215.499 156.001 205.008 158.198 205.008 161.74C205.008 163.604 206.483 164.408 208.748 164.408C210.967 164.408 214.711 162.03 223.446 160.541C222.807 166.336 223.318 174.338 222.857 181.647C221.707 199.862 225.849 202.314 236.456 202.314C247.395 202.314 258.215 198.586 258.215 188.085C258.215 180.039 248.017 176.904 248.017 175.718ZM232.445 159.551C234.574 159.428 236.706 159.368 238.838 159.369C243.822 159.369 250.058 160.359 250.058 165.553C250.058 172.483 238.207 173.116 232.125 173.17C232.257 167.309 232.491 162.825 232.445 159.551ZM236.456 196.049C233.166 196.049 232.393 194.974 232.208 189.611C232.099 186.451 232.044 183.289 232.045 180.126C237.975 180.145 250.06 180.565 250.06 188.427C250.058 193.336 245.128 196.049 236.456 196.049Z" fill="white"/>
<path fill-rule="evenodd" clip-rule="evenodd" d="M366.022 238.277C365.09 238.277 365.215 238.701 362.879 238.701C359.732 238.701 359.265 236.723 359.265 234.044C359.265 225.994 360.329 224.301 360.329 221.972C360.329 218.506 355.919 218.481 354.293 217.992C352.468 217.441 351.404 216.593 351.571 213.461C351.657 211.936 350.205 210.362 348.129 210.623C345.522 210.944 342.478 211.936 342.943 216.977C343.188 219.592 343.708 219.176 343.708 223.54C343.708 230.939 339.23 236.715 331.467 236.715C328.806 236.715 325.816 235.855 325.816 233.284C325.816 227.481 337.675 232.775 337.675 225.915C337.675 221.584 327.645 224.833 327.645 220.874C327.645 216.979 333.678 220.323 336.146 220.323C338.61 220.323 341.074 218.781 341.074 216.806C341.074 214.323 338.356 212.951 333.173 212.951C327.874 212.951 319.021 214.843 319.021 222.271C319.021 226.207 322.036 225.741 322.036 227.646C322.036 228.494 318.254 230.655 318.254 236.162C318.254 236.594 318.324 237.009 318.451 237.41C318.269 237.61 318.049 237.77 317.804 237.883C317.558 237.996 317.293 238.058 317.022 238.066C314.387 238.066 314.841 233.946 313.875 231.63C312.432 228.155 309.542 226.969 309.542 225.952C309.542 223.624 319.998 218.37 319.998 214.643C319.998 213.517 319.503 212.863 317.829 212.863C312.346 212.863 303.506 223.158 302.913 223.158C302.041 223.158 301.943 218.232 302.02 214.741C302.921 210.568 303.338 206.803 303.338 204.183C303.338 201.952 303.051 199.862 300.702 199.862C294.159 199.862 294.412 207.543 294.412 218.416C294.412 219.203 294.454 220.02 294.454 220.834C292.47 231.553 285.598 236.966 280.561 236.966C276.764 236.966 274.992 233.675 274.992 230.146C274.992 224.244 277.529 219.007 279.538 219.007C282.899 219.007 279.071 228.918 284.81 228.918C287.957 228.918 290.121 225.627 290.121 222.35C290.121 212.978 287.898 211.045 286.679 211.045C284.382 211.045 283.79 212.738 282.939 212.738C282.174 212.738 282.346 212.4 280.561 212.4C276.963 212.4 273.064 214.945 270.428 219.118C268.624 219.558 266.229 220.011 263.918 219.93C261.99 215.394 258.684 211.385 255.996 211.385C253.107 211.385 241.038 215.365 241.038 228.494C241.038 230.912 241.275 233.591 241.935 235.944C241.539 236.642 241.046 237.387 239.762 237.387C236.734 237.387 236.233 233.998 236.233 232.219C236.233 227.516 238.063 225.526 238.063 222.308C238.063 219.429 235.117 219.09 232.705 219.09C231.433 219.09 228.67 220.066 228.67 217.606C228.67 216.844 229.137 216.762 229.137 215.449C229.137 213.442 226.899 211.17 224.123 211.17C220.664 211.17 219.193 216.476 219.193 220.066C219.193 220.828 220.297 223.071 220.297 224.259C220.297 226.124 218.086 240.691 204.997 240.691C193.723 240.691 190.209 229.227 190.209 221.294C190.209 213.586 194.318 198.59 203.042 198.59C207.859 198.59 209.077 201.245 209.077 203.757C209.077 207.403 208.056 210.069 208.056 213.16C208.056 216.292 209.672 219.258 213.156 219.258C217.093 219.258 217.831 214.572 217.831 211.297C217.831 209.261 216.727 198.676 217.066 195.794C217.447 192.574 216.574 191.729 214.432 191.729C212.817 191.729 212.094 193.339 210.267 193.339C208.865 193.339 209.883 192.069 204.997 192.069C190.322 192.069 182.389 210.932 182.389 225.19C182.389 240.125 192.191 247.467 203.554 247.467C223.698 247.467 226.84 225.7 228.118 225.7C229.99 225.7 223.785 243.744 237.384 243.744C241.218 243.744 242.815 241.125 243.67 239.824C245.245 242.08 247.726 243.573 251.493 243.573C261.917 243.573 265.513 233.777 265.513 226.802C265.511 226.253 265.474 225.704 265.402 225.159C266.432 224.898 267.342 224.637 268.115 224.324C267.571 226.261 267.297 228.263 267.3 230.275C267.3 237.926 271.633 243.66 278.857 243.66C285.43 243.66 290.524 239.591 294.293 234.067C294.272 235.514 294.256 236.96 294.245 238.407C294.245 241.09 295.292 242.896 297.474 242.896C299.994 242.896 302.232 240.551 302.232 237.981C302.232 235.301 301.664 231.63 303.931 231.63C308.989 231.63 306.272 243.658 313.708 243.658C317.083 243.658 319.178 241.493 320.289 239.939C322.564 241.831 326.334 242.896 329.345 242.896C350.125 242.896 347.875 224.136 350.723 224.136C354.333 224.136 346.218 244.842 359.816 244.842C361.628 244.842 368.231 243.28 368.231 240.102C368.233 239.027 366.902 238.277 366.022 238.277ZM253.959 237.387C250.052 237.387 248.095 234.222 248.095 230.528C248.095 225.7 249.367 220.617 252.767 220.617C253.892 222.045 255.64 223.839 257.666 224.879C258.16 226.433 258.378 228.212 258.378 229.594C258.378 232.616 256.962 237.387 253.959 237.387Z" fill="white"/>
<path fill-rule="evenodd" clip-rule="evenodd" d="M335.096 171.611C330.648 171.611 329.338 175.436 329.338 182.242C329.338 182.881 329.376 183.453 329.399 184.251C328.643 187.6 326.707 191.898 323.56 191.898C321.42 191.898 321.043 187.732 321.052 184.127C322.181 180.573 322.709 177.405 322.709 176.056C322.709 173.544 322.229 171.143 320.331 171.143C317.299 171.143 314.466 172.554 314.466 183.257C314.466 185.708 314.508 187.949 314.737 190.054C313.66 191.779 312.272 192.998 310.64 192.998C306.184 192.998 306.32 185.084 306.458 178.111C307.321 174.668 307.87 171.151 308.078 167.887L311.744 167.839C316.677 167.77 320.67 166.822 320.67 165.467C320.67 164.112 317.863 163.853 315.652 163.688C313.871 163.556 311.256 163.423 308.176 163.297C308.172 157.711 308.057 154.625 306.052 154.625C302.995 154.625 301.26 156.678 300.216 163.022C297.787 162.949 295.357 162.884 292.927 162.828C292.799 160.138 292.275 157.845 290.325 157.845C287.697 157.845 286.096 159.499 285.124 162.671C278.52 162.564 273.076 162.546 271.371 162.673C266.87 163.011 265.085 164.793 265.085 166.486C265.085 168.253 267.61 169.337 269.332 169.197C273.961 168.817 278.994 168.56 284.102 168.376C283.635 173.064 283.611 179.251 283.611 186.815C283.611 187.009 283.616 187.212 283.624 187.416C282.086 194.015 277.043 195.792 271.796 195.792C269.135 195.792 266.399 195.27 266.399 192.702C266.399 187.322 277.28 191.388 277.28 184.994C277.28 180.665 267.421 183.493 267.421 179.531C267.421 175.635 274.897 179.404 277.365 179.404C279.83 179.404 281.487 178.12 281.487 176.142C281.487 173.657 278.426 171.821 273.24 171.821C267.945 171.821 259.216 173.713 259.216 181.139C259.216 185.078 263.468 185.163 263.468 187.068C263.468 187.915 258.454 189.945 258.454 195.454C258.454 199.662 265.027 201.977 269.672 201.977C276.421 201.977 281.719 199.455 285.55 194.79C286.74 196.734 288.598 198.166 291.345 198.166C294.84 198.166 297.91 195.851 300.438 192.271C301.704 196.089 303.963 198.757 308.004 198.757C311.095 198.757 313.647 197.079 315.711 194.621C316.721 197.145 318.544 198.674 321.858 198.674C324.928 198.674 327.583 197.01 329.793 194.571C329.908 197.55 330.017 200.879 330.017 204.35C330.017 208.079 330.644 209.942 332.993 209.942C335.8 209.942 337.244 207.144 337.244 203.757C337.244 191.246 337.39 182.156 337.386 177.783C337.434 177.37 337.516 176.697 337.516 176.397C337.518 173.544 337.675 171.611 335.096 171.611ZM299.081 176.311C299.008 177.894 298.974 179.479 298.978 181.064C297.939 185.664 295.544 191.303 293.302 191.303C291.203 191.303 290.838 187.469 290.807 184.345C292.141 179.755 292.864 174.233 292.946 168.121C295.2 168.073 297.432 168.033 299.609 167.998C299.371 170.765 299.195 173.537 299.081 176.311Z" fill="white"/>
</g>
<defs>
<clipPath id="clip0_58_41">
<rect width="388" height="168" fill="white" transform="translate(20 121)"/>
</clipPath>
</defs>
</svg>
