<svg width="429" height="428" viewBox="0 0 429 428" fill="none" xmlns="http://www.w3.org/2000/svg">
<rect width="429" height="428" rx="45" fill="#D8D8D8"/>
<path d="M55.6558 308.066C37.6516 308.066 37 322.435 37 336.569C37 357.847 39.1142 366 57.6238 366C61.9941 366 69.4981 364.761 72.49 364.139V335.712H55.5096V344.335H61.4844V356.76C59.809 357.381 57.841 357.847 56.0237 357.847C49.7564 357.847 48.1518 354.739 48.1518 337.191C48.1518 326.316 48.1518 316.454 55.0043 316.454C60.8328 316.454 61.6351 321.036 61.5642 326.241H72.4944C73.146 314.513 66.4398 308.066 55.6558 308.066ZM91.6068 325.073C78.0526 325.073 76.5943 334.238 76.5943 344.957C76.5943 357.226 78.3451 365.845 91.6068 365.845C96.4159 365.845 100.059 364.45 102.466 362.044C104.944 359.632 106.256 356.138 106.398 351.866H95.9815C95.9815 355.13 95.2502 358.855 91.6068 358.855C87.0902 358.855 86.9439 351.866 86.9439 347.208H106.619C106.983 334.624 105.453 325.073 91.6068 325.073ZM96.345 341.072H86.9439C86.9439 337.732 86.8686 331.831 91.6068 331.831C96.4912 331.831 96.345 337.266 96.345 341.072ZM128.954 325.073C125.093 325.073 122.323 326.316 120.284 329.811H120.138V325.85H109.864V365.072H120.138V338.043C120.138 334.549 120.723 331.831 123.999 331.831C127.278 331.831 127.864 334.549 127.864 338.043V365.072H138.138V333.616C138.138 328.181 133.838 325.073 128.954 325.073ZM156.395 325.073C142.841 325.073 141.382 334.238 141.382 344.957C141.382 357.226 143.129 365.845 156.395 365.845C161.204 365.845 164.847 364.45 167.25 362.044C169.727 359.632 171.039 356.138 171.186 351.866H160.765C160.765 355.13 160.038 358.855 156.395 358.855C151.874 358.855 151.727 351.866 151.727 347.208H171.403C171.771 334.624 170.237 325.073 156.395 325.073ZM161.128 341.072H151.727C151.727 337.732 151.657 331.831 156.395 331.831C161.275 331.831 161.128 337.266 161.128 341.072ZM194.105 325.073C189.952 325.073 186.455 326.396 184.558 330.899H184.412V325.85H174.647V365.072H184.926V343.714C184.926 339.828 185.068 334.238 194.105 334.859V325.073ZM222.765 338.199C222.765 331.054 221.09 325.073 208.045 325.073C204.109 325.073 200.758 325.774 198.427 327.635C196.02 329.424 194.899 332.519 195.329 337.191H204.694C204.694 334.082 204.978 331.209 208.555 331.209C212.269 331.209 212.708 333.616 212.708 336.955V339.984C203.161 339.828 193.764 340.374 193.764 353.345C193.764 360.179 196.384 365.845 203.529 365.845C207.97 365.845 210.957 363.904 213.147 359.868H213.293L213.727 365.072H223.275C223.058 362.661 222.765 360.179 222.765 357.768V338.199ZM207.606 359.091C204.255 359.091 203.817 355.667 203.817 352.879C203.817 345.889 207.606 346.351 212.708 346.12C212.708 350.392 213.652 359.091 207.606 359.091ZM228.124 308.998H238.398V365.072H228.124V308.998ZM286.002 347.128H285.855L277.62 308.998H259.913V365.072H270.626V321.813H270.772L280.39 365.072H290.886L301.01 321.813H301.16V365.072H311.869V308.998H294.747L286.002 347.128ZM317.139 308.998H327.413V317.617H317.139V308.998ZM317.139 325.85H327.413V365.072H317.139V325.85ZM333.344 308.998H343.618V365.072H333.344V308.998ZM349.544 308.998H359.818V365.072H349.544V308.998ZM372.889 335.401C372.889 332.763 374.13 331.209 376.386 331.209C377.481 331.209 378.354 331.365 379.01 332.062C379.742 332.764 380.03 334.393 380.03 337.111H390.087C390.672 328.647 384.329 325.073 377.335 325.073C370.704 325.073 362.832 327.635 362.832 336.103C362.832 348.607 380.907 346.742 380.907 355.05C380.907 357.692 379.157 359.091 377.118 359.091C375.074 359.091 373.984 358.469 373.399 357.226C372.889 355.982 372.818 354.273 372.889 352.488H362.832C362.252 363.438 368.226 365.845 377.189 365.845C385.717 365.845 390.956 360.72 390.956 353.887C390.956 341.307 372.889 341.618 372.889 335.401ZM290.505 211.171C290.505 187.509 281.591 164.711 281.591 145.298C281.591 118.513 290.243 102.217 290.243 102.217H259.141C256.216 115.143 251.181 123.939 237.8 127.51L238.159 126.488C240.676 119.179 244.302 106.204 244.302 98.5758C244.302 78.3807 230.544 62 206.059 62C200.464 61.9929 194.923 63.0946 189.755 65.2416C184.586 67.3886 179.893 70.5386 175.945 74.5101C171.996 78.4817 168.871 83.1964 166.749 88.3828C164.627 93.5693 163.55 99.125 163.58 104.73C163.58 128.486 178.446 145.529 198.245 152.771L192.776 168.073C190.172 167.857 187.561 167.748 184.948 167.744C137.969 167.744 124.3 200.337 124.3 220.794C124.3 260.753 160.982 285.975 205.279 285.975C242.4 285.975 290.505 266.299 290.505 211.171ZM193.254 104.819C193.254 96.3245 198.232 90.472 204.459 90.472C208.395 90.472 214.884 92.6833 214.884 103.647C214.884 107.59 210.385 118.686 208.741 123.367L207.628 126.51C197.15 122.074 193.254 110.374 193.254 104.819ZM155.659 221.531C155.659 206.602 167.015 198.481 182.342 197.255L169.585 232.93H199.783L211.077 201.691C223.891 206.904 229.985 214.679 229.985 214.679L239.976 187.202C239.976 187.202 233.376 180.528 220.722 174.995L227.485 156.239C240.619 154.778 250.835 149.84 250.835 149.84C250.835 176.669 258.969 190.017 258.969 208.698C258.969 245.838 229.25 255.46 205.368 255.46C180.148 255.465 155.659 243.458 155.659 221.531Z" fill="#397DB7"/>
</svg>
